HIERARCHY
ROOT Hips
{
	OFFSET 0.000000 71.427986 0.000000
	CHANNELS 6 Xposition Yposition Zposition Xrotation Yrotation Zrotation
	JOINT Pelvis
	{
		OFFSET 0.000000 0.000000 0.000000
		CHANNELS 3 Xrotation Yrotation Zrotation
		JOINT LeftUpLeg
		{
			OFFSET 6.797100 -2.508499 -1.318700
			CHANNELS 3 Xrotation Yrotation Zrotation
			JOINT LeftLeg
			{
				OFFSET 0.069008 -29.241863 0.690200
				CHANNELS 3 Xrotation Yrotation Zrotation
				JOINT LeftFoot
				{
					OFFSET -0.069008 -29.568123 -0.266800
					CHANNELS 3 Xrotation Yrotation Zrotation
					JOINT LeftToeBase
					{
						OFFSET 3.145500 -8.631000 16.059900
						CHANNELS 3 Xrotation Yrotation Zrotation
						End Site
						{
							OFFSET 0.000000 18.501587 0.000000
						}
					}
				}
			}
			JOINT Left_ShortSleeve
			{
				OFFSET 0.265923 -10.480953 1.153800
				CHANNELS 3 Xrotation Yrotation Zrotation
				End Site
				{
					OFFSET 1.725763 19.823879 0.000000
				}
			}
		}
		JOINT RightUpLeg
		{
			OFFSET -6.797100 -2.508499 -1.318700
			CHANNELS 3 Xrotation Yrotation Zrotation
			JOINT RightLeg
			{
				OFFSET -0.082453 -29.241932 0.688000
				CHANNELS 3 Xrotation Yrotation Zrotation
				JOINT RightFoot
				{
					OFFSET 0.082453 -29.568058 -0.264600
					CHANNELS 3 Xrotation Yrotation Zrotation
					JOINT RightToeBase
					{
						OFFSET -3.115300 -8.682800 16.113400
						CHANNELS 3 Xrotation Yrotation Zrotation
						End Site
						{
							OFFSET 0.000000 18.567114 0.000000
						}
					}
				}
			}
			JOINT Right_ShortSleeve
			{
				OFFSET -0.265923 -10.480953 1.153800
				CHANNELS 3 Xrotation Yrotation Zrotation
				End Site
				{
					OFFSET -1.725766 19.823910 0.000000
				}
			}
		}
	}
	JOINT Spine
	{
		OFFSET 0.000000 13.368103 0.470500
		CHANNELS 3 Xrotation Yrotation Zrotation
		JOINT Spine1
		{
			OFFSET 0.147000 13.837402 0.538800
			CHANNELS 3 Xrotation Yrotation Zrotation
			JOINT Spine2
			{
				OFFSET 0.168000 16.242897 -1.435500
				CHANNELS 3 Xrotation Yrotation Zrotation
				JOINT Neck
				{
					OFFSET 0.217200 18.631500 -1.679100
					CHANNELS 3 Xrotation Yrotation Zrotation
					JOINT Head
					{
						OFFSET 0.000000 6.599396 1.385900
						CHANNELS 3 Xrotation Yrotation Zrotation
						JOINT Hat
						{
							OFFSET -0.532200 27.220596 -10.096100
							CHANNELS 3 Xrotation Yrotation Zrotation
							End Site
							{
								OFFSET 0.000000 22.029861 0.000000
							}
						}
						JOINT HairD
						{
							OFFSET -10.777400 17.437393 -1.325900
							CHANNELS 3 Xrotation Yrotation Zrotation
							JOINT HairD1
							{
								OFFSET -3.290299 -11.051193 1.062200
								CHANNELS 3 Xrotation Yrotation Zrotation
								End Site
								{
									OFFSET 0.000000 11.579437 0.000000
								}
							}
						}
						JOINT HairB
						{
							OFFSET -10.777400 17.437393 1.467900
							CHANNELS 3 Xrotation Yrotation Zrotation
							JOINT HairB1
							{
								OFFSET -1.561200 -12.956299 3.590200
								CHANNELS 3 Xrotation Yrotation Zrotation
								End Site
								{
									OFFSET 0.000000 13.534866 0.000000
								}
							}
						}
						JOINT HairA
						{
							OFFSET 9.713100 17.437393 1.467900
							CHANNELS 3 Xrotation Yrotation Zrotation
							JOINT HairA1
							{
								OFFSET 1.561200 -12.956299 3.590200
								CHANNELS 3 Xrotation Yrotation Zrotation
								End Site
								{
									OFFSET 0.000000 13.534866 0.000000
								}
							}
						}
						JOINT HairC
						{
							OFFSET 9.713100 17.437393 -1.325900
							CHANNELS 3 Xrotation Yrotation Zrotation
							JOINT HairC1
							{
								OFFSET 3.290300 -11.051193 1.062200
								CHANNELS 3 Xrotation Yrotation Zrotation
								End Site
								{
									OFFSET 0.000000 11.579437 0.000000
								}
							}
						}
					}
				}
				JOINT LeftShoulder
				{
					OFFSET 5.101800 15.108002 -2.763700
					CHANNELS 3 Xrotation Yrotation Zrotation
					JOINT LeftArm
					{
						OFFSET 9.825497 2.506317 -1.597400
						CHANNELS 3 Xrotation Yrotation Zrotation
						JOINT LeftForeArm
						{
							OFFSET 21.966244 0.000000 0.000000
							CHANNELS 3 Xrotation Yrotation Zrotation
							JOINT LeftHand
							{
								OFFSET 33.879036 0.000000 0.000000
								CHANNELS 3 Xrotation Yrotation Zrotation
								JOINT LeftHandThumb1
								{
									OFFSET 6.715286 -2.359680 3.363841
									CHANNELS 3 Xrotation Yrotation Zrotation
									JOINT LeftHandThumb2
									{
										OFFSET 2.507072 -1.447464 1.447461
										CHANNELS 3 Xrotation Yrotation Zrotation
										JOINT LeftHandThumb3
										{
											OFFSET 2.898338 -1.673355 1.673357
											CHANNELS 3 Xrotation Yrotation Zrotation
											End Site
											{
												OFFSET -0.295959 3.727692 -0.131651
											}
										}
									}
								}
								JOINT LeftHandIndex1
								{
									OFFSET 14.190811 -0.254547 3.840278
									CHANNELS 3 Xrotation Yrotation Zrotation
									JOINT LeftHandIndex2
									{
										OFFSET 3.551727 0.000000 -0.000000
										CHANNELS 3 Xrotation Yrotation Zrotation
										JOINT LeftHandIndex3
										{
											OFFSET 2.894196 0.000000 0.000000
											CHANNELS 3 Xrotation Yrotation Zrotation
											End Site
											{
												OFFSET -1.000603 2.690872 0.366626
											}
										}
									}
								}
								JOINT LeftHandMiddle1
								{
									OFFSET 13.776489 0.000000 0.000000
									CHANNELS 3 Xrotation Yrotation Zrotation
									JOINT LeftHandMiddle2
									{
										OFFSET 3.438232 0.000000 0.000000
										CHANNELS 3 Xrotation Yrotation Zrotation
										JOINT LeftHandMiddle3
										{
											OFFSET 3.691551 0.000000 0.000000
											CHANNELS 3 Xrotation Yrotation Zrotation
											End Site
											{
												OFFSET -1.082298 3.499527 0.457670
											}
										}
									}
								}
								JOINT LeftHandRing1
								{
									OFFSET 13.966164 -0.268127 -3.067488
									CHANNELS 3 Xrotation Yrotation Zrotation
									JOINT LeftHandRing2
									{
										OFFSET 3.162567 0.000000 0.000000
										CHANNELS 3 Xrotation Yrotation Zrotation
										JOINT LeftHandRing3
										{
											OFFSET 3.324348 0.000000 0.000000
											CHANNELS 3 Xrotation Yrotation Zrotation
											End Site
											{
												OFFSET -0.861900 3.184998 0.405154
											}
										}
									}
								}
								JOINT LeftHandPinky1
								{
									OFFSET 13.131393 -0.168503 -5.746925
									CHANNELS 3 Xrotation Yrotation Zrotation
									JOINT LeftHandPinky2
									{
										OFFSET 2.849182 0.000000 0.000000
										CHANNELS 3 Xrotation Yrotation Zrotation
										JOINT LeftHandPinky3
										{
											OFFSET 2.805038 0.000000 0.000000
											CHANNELS 3 Xrotation Yrotation Zrotation
											End Site
											{
												OFFSET -0.882500 2.642609 0.325652
											}
										}
									}
								}
							}
							JOINT Left_Sleeve
							{
								OFFSET 6.592125 -0.646545 0.805568
								CHANNELS 3 Xrotation Yrotation Zrotation
								End Site
								{
									OFFSET -0.000179 20.275787 -0.000000
								}
							}
						}
					}
				}
				JOINT RightShoulder
				{
					OFFSET -5.731700 15.108002 -2.763700
					CHANNELS 3 Xrotation Yrotation Zrotation
					JOINT RightArm
					{
						OFFSET -9.825497 2.506317 -1.597400
						CHANNELS 3 Xrotation Yrotation Zrotation
						JOINT RightForeArm
						{
							OFFSET -21.966242 0.000000 0.000000
							CHANNELS 3 Xrotation Yrotation Zrotation
							JOINT RightHand
							{
								OFFSET -33.879032 0.000000 0.000000
								CHANNELS 3 Xrotation Yrotation Zrotation
								JOINT RightHandThumb1
								{
									OFFSET -6.715286 -2.359680 3.363841
									CHANNELS 3 Xrotation Yrotation Zrotation
									JOINT RightHandThumb2
									{
										OFFSET -2.507072 -1.447464 1.447461
										CHANNELS 3 Xrotation Yrotation Zrotation
										JOINT RightHandThumb3
										{
											OFFSET -2.898338 -1.673355 1.673357
											CHANNELS 3 Xrotation Yrotation Zrotation
											End Site
											{
												OFFSET 0.295959 3.727692 -0.131651
											}
										}
									}
								}
								JOINT RightHandIndex1
								{
									OFFSET -14.190811 -0.254547 3.840278
									CHANNELS 3 Xrotation Yrotation Zrotation
									JOINT RightHandIndex2
									{
										OFFSET -3.551727 0.000000 -0.000000
										CHANNELS 3 Xrotation Yrotation Zrotation
										JOINT RightHandIndex3
										{
											OFFSET -2.894196 0.000000 0.000000
											CHANNELS 3 Xrotation Yrotation Zrotation
											End Site
											{
												OFFSET 1.000603 2.690872 0.366626
											}
										}
									}
								}
								JOINT RightHandMiddle1
								{
									OFFSET -13.776489 0.000000 0.000000
									CHANNELS 3 Xrotation Yrotation Zrotation
									JOINT RightHandMiddle2
									{
										OFFSET -3.438232 0.000000 0.000000
										CHANNELS 3 Xrotation Yrotation Zrotation
										JOINT RightHandMiddle3
										{
											OFFSET -3.691551 0.000000 0.000000
											CHANNELS 3 Xrotation Yrotation Zrotation
											End Site
											{
												OFFSET 1.082298 3.499527 0.457670
											}
										}
									}
								}
								JOINT RightHandRing1
								{
									OFFSET -13.966164 -0.268127 -3.067488
									CHANNELS 3 Xrotation Yrotation Zrotation
									JOINT RightHandRing2
									{
										OFFSET -3.162567 0.000000 0.000000
										CHANNELS 3 Xrotation Yrotation Zrotation
										JOINT RightHandRing3
										{
											OFFSET -3.324348 0.000000 0.000000
											CHANNELS 3 Xrotation Yrotation Zrotation
											End Site
											{
												OFFSET 0.861900 3.184998 0.405154
											}
										}
									}
								}
								JOINT RightHandPinky1
								{
									OFFSET -13.131393 -0.168503 -5.746925
									CHANNELS 3 Xrotation Yrotation Zrotation
									JOINT RightHandPinky2
									{
										OFFSET -2.849182 0.000000 0.000000
										CHANNELS 3 Xrotation Yrotation Zrotation
										JOINT RightHandPinky3
										{
											OFFSET -2.805038 0.000000 0.000000
											CHANNELS 3 Xrotation Yrotation Zrotation
											End Site
											{
												OFFSET 0.882500 2.642609 0.325652
											}
										}
									}
								}
							}
							JOINT Right_Sleeve
							{
								OFFSET -6.592125 -0.646545 0.805568
								CHANNELS 3 Xrotation Yrotation Zrotation
								End Site
								{
									OFFSET 0.000179 20.275787 -0.000000
								}
							}
						}
					}
				}
				JOINT Bind_Right_JacketString
				{
					OFFSET -3.534800 11.969597 7.200700
					CHANNELS 3 Xrotation Yrotation Zrotation
					JOINT Bind_Right_JacketString1
					{
						OFFSET -0.319900 -6.102600 2.794100
						CHANNELS 3 Xrotation Yrotation Zrotation
						End Site
						{
							OFFSET 0.000000 6.719452 0.000000
						}
					}
				}
				JOINT Bind_Left_JacketString
				{
					OFFSET 2.904800 11.969597 7.200700
					CHANNELS 3 Xrotation Yrotation Zrotation
					JOINT Bind_Left_JacketString1
					{
						OFFSET 0.364800 -5.904503 3.186800
						CHANNELS 3 Xrotation Yrotation Zrotation
						End Site
						{
							OFFSET 0.000000 6.719513 0.000000
						}
					}
				}
				JOINT HairE
				{
					OFFSET 5.915200 17.612701 -11.592200
					CHANNELS 3 Xrotation Yrotation Zrotation
					JOINT HairE1
					{
						OFFSET 0.289200 -7.171898 -1.284500
						CHANNELS 3 Xrotation Yrotation Zrotation
						End Site
						{
							OFFSET 0.000000 7.291756 0.000000
						}
					}
				}
				JOINT HairF
				{
					OFFSET -0.864800 17.612701 -11.592200
					CHANNELS 3 Xrotation Yrotation Zrotation
					JOINT HairF1
					{
						OFFSET 0.000000 -14.087097 -2.127501
						CHANNELS 3 Xrotation Yrotation Zrotation
						End Site
						{
							OFFSET 0.000000 14.246841 0.000000
						}
					}
				}
				JOINT HairG
				{
					OFFSET -8.087700 17.612701 -11.592200
					CHANNELS 3 Xrotation Yrotation Zrotation
					JOINT HairG1
					{
						OFFSET -0.293600 -6.081398 -0.910100
						CHANNELS 3 Xrotation Yrotation Zrotation
						End Site
						{
							OFFSET 0.000000 6.156120 0.000000
						}
					}
				}
			}
		}
	}
	JOINT Pouch
	{
		OFFSET 0.000000 4.394501 10.847300
		CHANNELS 3 Xrotation Yrotation Zrotation
		End Site
		{
			OFFSET 0.000000 21.880577 0.000000
		}
	}
	JOINT Bag
	{
		OFFSET -13.229000 4.813004 -0.593300
		CHANNELS 3 Xrotation Yrotation Zrotation
		End Site
		{
			OFFSET 0.000000 21.880577 0.000000
		}
	}
	JOINT OccupyGuyFacialAnim_Joint
	{
		OFFSET 1.000000 -70.206398 -1.655000
		CHANNELS 3 Xrotation Yrotation Zrotation
		End Site
		{
			OFFSET 0.000000 21.880577 0.000000
		}
	}
}
MOTION
Frames: 4
Frame Time: 0.033333
-0.251737 65.410446 3.259546 -9.555558 -7.375996 7.139180 0.000001 0.000000 -0.000000 -5.268116 -1.725208 -7.392782 43.950471 4.001409 -10.588826 -29.328030 -1.398380 5.720963 0.000000 0.000000 -0.000000 -0.000001 -0.000002 -0.000000 -9.887195 -2.535408 -7.370873 71.233750 -12.823234 3.667937 -25.242305 -11.109140 8.284479 -0.000001 0.000001 -0.000000 0.000001 -0.000001 -0.000001 14.968681 3.407663 -0.054928 2.647230 0.436877 -0.106755 2.651306 0.442283 -0.099752 -6.194889 -4.650600 -6.513811 -11.054419 -33.832410 11.034455 0.000001 -0.000001 0.000001 0.000001 -0.000001 0.000001 0.000001 -0.000001 0.000000 0.000001 -0.000001 -0.000001 0.000000 0.000000 -0.000001 0.000001 -0.000001 -0.000001 0.000000 0.000000 -0.000001 0.000001 -0.000001 0.000001 0.000001 -0.000001 0.000001 0.755765 -3.836596 -6.267268 -14.039913 -33.576001 -62.282446 0.000003 -21.417737 -0.000009 48.542038 -17.380263 9.042538 -4.348541 14.905216 17.197696 4.414047 13.669997 1.181191 -0.000000 -0.000001 0.000001 0.277607 1.939120 -16.293076 0.646419 2.917536 -24.980657 0.000002 0.000000 -0.000000 0.285303 1.965224 -16.518818 0.627860 2.877459 -24.613715 0.000001 0.000001 -0.000003 0.446221 2.442732 -20.701246 0.745496 3.121138 -26.861669 -0.000000 -0.000000 -0.000001 2.906217 6.945108 -29.306351 0.919787 -0.637689 -30.169523 0.000002 -0.000000 0.000001 0.000002 -0.000001 0.000001 0.919199 5.942148 5.093842 -22.343330 35.987813 51.284913 -0.000025 102.638004 0.000016 11.789639 -1.922600 -1.650070 -2.121681 -18.237875 -8.377451 5.377178 -16.885023 -0.789927 -0.000002 -0.000001 0.000001 0.118262 -1.279522 10.560818 0.208846 -1.694627 14.049900 0.000000 -0.000002 -0.000000 0.113530 -1.253860 10.346559 0.241739 -1.821029 15.122664 0.000002 0.000001 -0.000001 0.166941 -1.517460 12.554934 0.332155 -2.127350 17.746703 -0.000001 0.000001 -0.000002 0.327839 -2.113801 17.629806 0.468897 -2.514602 21.122259 0.000001 0.000001 -0.000001 -0.000001 -0.000000 -0.000002 0.000001 -0.000000 -0.000001 0.000001 -0.000000 -0.000001 0.000001 -0.000000 0.000000 0.000001 -0.000000 0.000000 0.000001 -0.000000 -0.000001 0.000001 -0.000000 -0.000001 0.000001 -0.000000 0.000000 0.000001 -0.000000 0.000000 0.000001 -0.000000 -0.000001 0.000001 -0.000000 -0.000001 0.000001 0.000000 -0.000000 0.000001 0.000000 -0.000000 0.000001 0.000000 -0.000000 
-0.704369 64.968758 3.282981 -9.919591 -9.385939 7.650843 0.000001 0.000000 -0.000000 -5.285389 -0.826448 -7.733966 45.670343 4.562991 -10.636409 -30.516674 -1.238022 4.940664 0.000000 0.000000 0.000000 0.000002 0.000001 -0.000000 -12.416643 -0.642713 -9.931596 76.153406 -12.308548 4.270788 -21.565769 -5.383997 10.709942 -0.000001 -0.000002 0.000000 -0.000004 0.000000 -0.000000 15.840121 3.436865 -1.497112 2.851509 0.468931 -0.277455 2.853760 0.468297 -0.271551 -6.728279 -5.011825 -7.047168 -13.260340 -36.442027 11.571701 -0.000000 -0.000004 0.000001 -0.000000 -0.000004 0.000001 -0.000000 -0.000004 0.000002 -0.000000 -0.000004 -0.000000 -0.000000 -0.000004 -0.000000 -0.000000 -0.000004 -0.000000 -0.000000 -0.000004 -0.000000 -0.000000 -0.000004 0.000001 -0.000000 -0.000004 0.000001 0.732838 -3.370995 -6.288185 -14.299093 -32.347414 -61.602432 -0.000006 -20.621424 -0.000003 49.031360 -16.960372 9.167533 -4.348541 14.905213 17.197699 4.414043 13.669995 1.181193 -0.000002 0.000001 -0.000000 0.266776 1.901696 -15.969887 0.638217 2.899868 -24.818819 0.000003 0.000001 -0.000002 0.274327 1.927859 -16.195610 0.619786 2.859715 -24.451884 0.000002 0.000000 -0.000001 0.432537 2.406259 -20.377813 0.736712 3.103742 -26.699775 0.000001 0.000000 -0.000002 2.866769 6.922433 -28.979588 0.910020 -0.654534 -30.008207 0.000002 -0.000001 0.000003 0.000003 0.000005 -0.000003 1.003597 6.332367 4.474034 -24.000004 32.944407 50.280581 0.000366 103.071332 -0.000395 13.566868 -1.381644 -1.172869 -2.121693 -18.237870 -8.377455 5.377173 -16.885025 -0.789925 -0.000000 -0.000001 0.000001 0.127157 -1.326311 10.951664 0.214656 -1.717695 14.245426 0.000000 0.000002 0.000001 0.120582 -1.291902 10.664107 0.248736 -1.846684 15.341119 0.000003 0.000000 0.000001 0.175451 -1.555185 12.872558 0.340317 -2.152659 17.965226 0.000002 -0.000002 -0.000002 0.342420 -2.159129 18.021002 0.477522 -2.536778 21.317973 -0.000001 0.000000 -0.000001 0.000002 0.000000 -0.000001 0.000001 -0.000000 -0.000000 0.000001 -0.000000 -0.000001 0.000001 -0.000000 0.000001 0.000001 -0.000000 0.000001 0.000001 -0.000000 -0.000000 0.000001 -0.000000 -0.000000 0.000001 -0.000000 0.000001 0.000001 -0.000000 0.000001 0.000001 -0.000000 -0.000000 0.000001 -0.000000 -0.000000 0.000001 0.000000 -0.000000 0.000001 0.000000 -0.000000 0.000001 0.000000 -0.000000 
-1.296803 64.704971 3.180015 -9.878672 -11.371261 7.382401 0.000000 0.000000 -0.000000 -5.635880 -0.174317 -7.086216 47.049546 5.230824 -10.695339 -31.399339 -0.973228 3.953369 0.000000 -0.000000 0.000000 0.000002 -0.000000 -0.000000 -15.476485 0.171851 -11.116334 79.242530 -7.489750 4.265944 -18.616300 -1.344299 6.431709 -0.000003 -0.000001 0.000000 0.000000 0.000000 -0.000000 17.046192 3.238311 -2.787276 2.698820 0.468595 -0.345743 2.699631 0.465967 -0.342967 -7.164061 -5.474071 -7.289671 -15.841932 -39.121387 11.853010 0.000000 -0.000001 -0.000000 0.000000 -0.000001 -0.000000 0.000000 -0.000001 0.000000 0.000000 -0.000001 -0.000002 -0.000000 0.000001 -0.000001 0.000000 -0.000001 -0.000002 -0.000000 0.000001 -0.000001 0.000000 -0.000001 -0.000000 0.000000 -0.000001 -0.000000 0.721352 -3.240093 -5.828326 -13.093325 -29.090670 -60.197988 -0.000005 -19.976483 0.000003 49.550567 -16.058581 8.481702 -4.348540 14.905216 17.197699 4.414045 13.669997 1.181191 -0.000001 0.000001 -0.000001 0.263740 1.891042 -15.878021 0.635883 2.894852 -24.772821 -0.000000 -0.000000 -0.000000 0.271247 1.917214 -16.103766 0.617484 2.854690 -24.405862 -0.000000 0.000001 -0.000003 0.428689 2.395863 -20.285887 0.734231 3.098799 -26.653765 -0.000001 0.000001 0.000001 2.855571 6.915986 -28.886704 0.907256 -0.659324 -29.962370 -0.000001 -0.000001 0.000003 0.000003 -0.000001 0.000003 1.043268 6.338285 3.614353 -26.311789 28.082451 46.476217 0.000199 102.415640 -0.000207 14.214164 -0.995803 -1.195264 -2.121683 -18.237889 -8.377457 5.377172 -16.885023 -0.789924 -0.000001 -0.000001 0.000000 0.128174 -1.331572 10.995622 0.215320 -1.720297 14.267411 -0.000001 0.000002 0.000002 0.121391 -1.296195 10.699839 0.249526 -1.849568 15.365692 -0.000000 -0.000004 -0.000003 0.176432 -1.559444 12.908287 0.341247 -2.155519 17.989798 -0.000001 -0.000002 0.000003 0.344085 -2.164231 18.065007 0.478498 -2.539275 21.339990 -0.000000 0.000001 0.000002 0.000002 0.000002 0.000001 0.000001 0.000000 -0.000000 0.000001 0.000000 -0.000000 0.000001 0.000000 0.000000 0.000001 0.000000 0.000000 0.000001 0.000000 -0.000000 0.000001 0.000000 0.000000 0.000001 0.000000 0.000000 0.000001 0.000000 0.000000 0.000001 0.000000 -0.000000 0.000001 0.000000 0.000000 0.000000 0.000000 -0.000000 0.000000 0.000000 -0.000000 0.000000 0.000000 -0.000000 
-2.067141 64.843872 3.041653 -9.330394 -13.126467 6.335246 -0.000001 0.000001 -0.000000 -5.824309 0.237602 -5.314883 46.995547 5.820976 -10.705475 -31.486516 -0.664333 2.879571 -0.000000 -0.000000 0.000000 -0.000002 0.000001 -0.000000 -17.519539 -0.311650 -10.985675 78.456218 -1.179474 3.915865 -19.109109 -0.493315 1.116486 -0.000000 0.000001 -0.000001 -0.000001 0.000002 0.000000 18.485226 2.796800 -3.521031 2.100753 0.434011 -0.361857 2.101065 0.430653 -0.364059 -7.478270 -6.023568 -7.198433 -18.519225 -41.764261 11.908934 0.000000 0.000001 0.000000 0.000000 0.000001 0.000000 0.000000 0.000001 -0.000001 0.000000 0.000001 -0.000002 0.000001 0.000003 -0.000000 0.000000 0.000001 -0.000002 0.000001 0.000003 -0.000000 0.000000 0.000001 0.000000 0.000000 0.000001 0.000000 0.740349 -3.666485 -4.782781 -10.233523 -23.532203 -58.215574 -0.000002 -19.468903 0.000017 49.919288 -14.688180 6.962116 -4.348541 14.905214 17.197696 4.414048 13.669994 1.181188 0.000001 0.000001 0.000001 0.265903 1.898585 -15.943087 0.637519 2.898416 -24.805413 0.000001 0.000001 -0.000000 0.273417 1.924743 -16.168823 0.619098 2.858253 -24.438473 0.000000 0.000000 0.000001 0.431412 2.403209 -20.350991 0.735973 3.102310 -26.686372 -0.000002 0.000001 -0.000003 2.863490 6.920567 -28.952503 0.909213 -0.655943 -29.994837 0.000001 -0.000000 -0.000002 0.000002 -0.000001 0.000002 1.020952 5.903142 2.498059 -30.473176 21.675675 40.208702 -0.000209 100.211839 0.000225 13.275289 -1.140651 -1.686649 -2.121690 -18.237881 -8.377451 5.377174 -16.885025 -0.789928 0.000004 0.000000 -0.000001 0.119956 -1.288582 10.636301 0.209956 -1.699086 14.087667 0.000001 -0.000002 -0.000002 0.114865 -1.261220 10.407887 0.243087 -1.825989 15.164861 0.000003 0.000000 0.000001 0.168561 -1.524743 12.616277 0.333728 -2.132253 17.788910 -0.000000 -0.000003 -0.000001 0.330620 -2.122560 17.705365 0.470559 -2.518879 21.160058 -0.000001 0.000003 0.000001 0.000001 0.000002 -0.000001 0.000000 0.000000 0.000000 0.000000 -0.000001 0.000000 0.000000 0.000000 -0.000000 0.000000 0.000000 -0.000000 0.000000 0.000000 0.000000 0.000000 -0.000001 0.000000 0.000000 0.000000 -0.000000 0.000000 0.000000 -0.000000 0.000000 0.000000 0.000000 0.000000 -0.000001 0.000000 -0.000001 0.000001 -0.000000 -0.000001 0.000001 -0.000000 -0.000001 0.000001 -0.000000 
